<?xml version="1.0" standalone="no"?><!DOCTYPE svg PUBLIC "-//W3C//DTD SVG 1.1//EN" "http://www.w3.org/Graphics/SVG/1.1/DTD/svg11.dtd"><svg t="1747014075022" class="icon" viewBox="0 0 1024 1024" version="1.1" xmlns="http://www.w3.org/2000/svg" p-id="2611" xmlns:xlink="http://www.w3.org/1999/xlink" width="32" height="32"><path d="M795.733333 386.56h-20.48a42.666667 42.666667 0 0 0-29.866666 12.373333l-256 256a89.173333 89.173333 0 0 1-113.066667 12.8 58.88 58.88 0 0 1-11.093333-9.386666 85.333333 85.333333 0 0 1 0-120.746667l260.266666-256a42.666667 42.666667 0 0 0 12.8-30.293333v-23.466667a42.666667 42.666667 0 0 0-12.373333-29.866667l-101.546667-100.266666a42.666667 42.666667 0 0 0-29.866666-12.373334h-21.76a42.666667 42.666667 0 0 0-29.866667 12.373334l-251.733333 250.026666a349.013333 349.013333 0 0 0-23.893334 474.453334l15.36 16.64a341.333333 341.333333 0 0 0 482.986667 0l260.266667-258.56a42.666667 42.666667 0 0 0 12.8-30.293334v-20.48a42.666667 42.666667 0 0 0-12.373334-29.866666l-100.693333-100.693334a42.666667 42.666667 0 0 0-29.866667-12.373333z m-190.72 391.68a256 256 0 0 1-361.813333 0 163.413333 163.413333 0 0 1-11.946667-10.24 263.253333 263.253333 0 0 1 20.053334-357.973333l119.466666-116.48 60.16 58.026666-128 125.013334a170.666667 170.666667 0 0 0 0 241.493333 153.6 153.6 0 0 0 22.186667 18.346667 174.933333 174.933333 0 0 0 222.72-22.186667l124.16-121.173333 60.16 60.16z" p-id="2612" fill="#21A2AD"></path></svg>