<?xml version="1.0" standalone="no"?><!DOCTYPE svg PUBLIC "-//W3C//DTD SVG 1.1//EN" "http://www.w3.org/Graphics/SVG/1.1/DTD/svg11.dtd"><svg t="1747014378685" class="icon" viewBox="0 0 1024 1024" version="1.1" xmlns="http://www.w3.org/2000/svg" p-id="9023" xmlns:xlink="http://www.w3.org/1999/xlink" width="32" height="32"><path d="M832 192c-70.613333 0-128 57.386667-128 128 0 44.16 22.506667 83.2 56.533333 106.133333l-51.413333 145.706667-298.88-430.08c-6.826667-9.813333-18.453333-15.04-30.613333-13.44-11.946667 1.6-21.866667 9.706667-25.92 21.013333L203.093333 576.533333c-3.626667-0.32-7.36-0.533333-11.093333-0.533333-70.613333 0-128 57.386667-128 128s57.386667 128 128 128 128-57.386667 128-128c0-44.16-22.506667-83.2-56.533333-106.133333l49.706666-140.8 300.8 425.493333c6.08 8.533333 15.786667 13.546667 26.133334 13.546667 1.386667 0 2.986667-0.106667 4.373333-0.32 11.84-1.6 21.76-9.706667 25.813333-21.013334l150.72-427.093333c3.626667 0.32 7.36 0.533333 11.093334 0.533333 70.613333 0 128-57.386667 128-128S902.613333 192 832 192zM192 768c-35.306667 0-64-28.693333-64-64s28.693333-64 64-64 64 28.693333 64 64-28.693333 64-64 64z m438.4 26.986667L339.2 383.04l54.186667-153.493333 289.6 416.64L630.4 794.986667zM832 384c-35.306667 0-64-28.693333-64-64s28.693333-64 64-64 64 28.693333 64 64-28.693333 64-64 64z" p-id="9024" fill="#21A2AD"></path></svg>